<svg xmlns="http://www.w3.org/2000/svg" width="1200" height="630"><rect width="1200" height="630" fill="#17262f"/><g fill="#283945"><rect x="45" y="25" width="35" height="18"/><rect x="45" y="587" width="35" height="18"/><rect x="127" y="25" width="35" height="18"/><rect x="127" y="587" width="35" height="18"/><rect x="209" y="25" width="35" height="18"/><rect x="209" y="587" width="35" height="18"/><rect x="291" y="25" width="35" height="18"/><rect x="291" y="587" width="35" height="18"/><rect x="373" y="25" width="35" height="18"/><rect x="373" y="587" width="35" height="18"/><rect x="455" y="25" width="35" height="18"/><rect x="455" y="587" width="35" height="18"/><rect x="537" y="25" width="35" height="18"/><rect x="537" y="587" width="35" height="18"/><rect x="619" y="25" width="35" height="18"/><rect x="619" y="587" width="35" height="18"/><rect x="701" y="25" width="35" height="18"/><rect x="701" y="587" width="35" height="18"/><rect x="783" y="25" width="35" height="18"/><rect x="783" y="587" width="35" height="18"/><rect x="865" y="25" width="35" height="18"/><rect x="865" y="587" width="35" height="18"/><rect x="947" y="25" width="35" height="18"/><rect x="947" y="587" width="35" height="18"/><rect x="1029" y="25" width="35" height="18"/><rect x="1029" y="587" width="35" height="18"/><rect x="1111" y="25" width="35" height="18"/><rect x="1111" y="587" width="35" height="18"/></g><path d="M80 145 C190 115 260 175 370 145 S550 115 690 145 880 175 1120 145" fill="none" stroke="#6fc2cf" stroke-width="2" opacity="0.45"/><path d="M80 217 C190 170 260 264 370 217 S550 170 690 217 880 264 1120 217" fill="none" stroke="#d95c50" stroke-width="3" opacity="0.55"/><path d="M80 289 C190 267 260 311 370 289 S550 267 690 289 880 311 1120 289" fill="none" stroke="#8bd0a5" stroke-width="2" opacity="0.65"/><path d="M80 361 C190 322 260 400 370 361 S550 322 690 361 880 400 1120 361" fill="none" stroke="#8097aa" stroke-width="3" opacity="0.75"/><path d="M80 433 C190 377 260 489 370 433 S550 377 690 433 880 489 1120 433" fill="none" stroke="#6fc2cf" stroke-width="2" opacity="0.8500000000000001"/><rect x="42" y="65" width="1116" height="500" fill="none" stroke="#6fc2cf" opacity=".35"/><text x="76" y="118" font-family="Georgia,serif" font-size="39" fill="#dce8e8">编码冻结格</text><text x="1120" y="548" text-anchor="end" font-family="monospace" font-size="18" fill="#6fc2cf">REEL 081 / 04</text></svg>