<svg xmlns="http://www.w3.org/2000/svg" width="1200" height="630" viewBox="0 0 1200 630"><rect width="1200" height="630" rx="30" fill="#eee7db"/><g opacity=".18" stroke="#17342d" fill="none"><circle cx="70" cy="65" r="19"/><circle cx="153" cy="315" r="19"/><circle cx="236" cy="565" r="19"/><circle cx="319" cy="65" r="19"/><circle cx="402" cy="315" r="19"/><circle cx="485" cy="565" r="19"/><circle cx="568" cy="65" r="19"/><circle cx="651" cy="315" r="19"/><circle cx="734" cy="565" r="19"/><circle cx="817" cy="65" r="19"/><circle cx="900" cy="315" r="19"/><circle cx="983" cy="565" r="19"/><circle cx="1066" cy="65" r="19"/><circle cx="1149" cy="315" r="19"/></g><path d="M80 201 C300 201,250 328,641 328 S840 232,1120 237" fill="none" stroke="#c44e3c" stroke-width="18" stroke-linecap="round"/><path d="M80 445 C260 445,360 268,620 268 S900 390,1120 404" fill="none" stroke="#cedb58" stroke-width="11" stroke-linecap="round"/><g fill="#eee7db" stroke="#17342d" stroke-width="8"><circle cx="80" cy="201" r="35"/><circle cx="1120" cy="237" r="35"/><circle cx="641" cy="328" r="24"/></g><rect x="70" y="64" width="240" height="58" rx="4" fill="#17342d"/><text x="93" y="102" font-family="Arial,sans-serif" font-size="23" font-weight="700" letter-spacing="4" fill="#eee7db">ANSWER LINE 12</text><text x="70" y="585" font-family="Georgia,serif" font-size="41" font-weight="700" fill="#17342d">UPDATE / PUBLIC ACCESS LINE</text><text x="1060" y="585" font-family="Georgia,serif" font-size="56" font-style="italic" fill="#c44e3c">12</text></svg>
