<svg xmlns="http://www.w3.org/2000/svg" width="1200" height="630" viewBox="0 0 1200 630"><rect width="1200" height="630" fill="#f2ecdd"/><path d="M0 0h1200" stroke="#e6dcc9"/><path d="M0 33h1200" stroke="#e6dcc9"/><path d="M0 66h1200" stroke="#e6dcc9"/><path d="M0 99h1200" stroke="#e6dcc9"/><path d="M0 132h1200" stroke="#e6dcc9"/><path d="M0 165h1200" stroke="#e6dcc9"/><path d="M0 198h1200" stroke="#e6dcc9"/><path d="M0 231h1200" stroke="#e6dcc9"/><path d="M0 264h1200" stroke="#e6dcc9"/><path d="M0 297h1200" stroke="#e6dcc9"/><path d="M0 330h1200" stroke="#e6dcc9"/><path d="M0 363h1200" stroke="#e6dcc9"/><path d="M0 396h1200" stroke="#e6dcc9"/><path d="M0 429h1200" stroke="#e6dcc9"/><path d="M0 462h1200" stroke="#e6dcc9"/><path d="M0 495h1200" stroke="#e6dcc9"/><path d="M0 528h1200" stroke="#e6dcc9"/><path d="M0 561h1200" stroke="#e6dcc9"/><path d="M48 38h1104v554H48z" fill="none" stroke="#a98242"/><path d="M105 145h410v350H105zM635 105h460v390H635z" fill="#fffaf0" stroke="#9e2f27" stroke-width="3"/><path d="M545 70v490" stroke="#a98242" stroke-width="6"/><path d="M155 225h290M155 290h200M155 355h270M695 175h330M695 250h210M695 325h270M695 400h330" stroke="#746a60" stroke-width="5"/></svg>
